<?xml version="1.0" encoding="UTF-8"?>
<svg xmlns="http://www.w3.org/2000/svg" width="640" height="420" viewBox="0 0 640 420" role="img" aria-hidden="true">
  <defs>
    <linearGradient id="steel" x1="0" x2="1" y1="0" y2="1">
      <stop offset="0" stop-color="#f8fafc"/>
      <stop offset="0.28" stop-color="#c8cdd4"/>
      <stop offset="0.52" stop-color="#ffffff"/>
      <stop offset="0.78" stop-color="#9fa7b2"/>
      <stop offset="1" stop-color="#eef1f4"/>
    </linearGradient>
    <linearGradient id="darkSteel" x1="0" x2="1">
      <stop offset="0" stop-color="#20242b"/>
      <stop offset="1" stop-color="#11151b"/>
    </linearGradient>
    <linearGradient id="redSteel" x1="0" x2="1">
      <stop offset="0" stop-color="#d9252e"/>
      <stop offset="1" stop-color="#b71f28"/>
    </linearGradient>
    <filter id="softShadow" x="-20%" y="-20%" width="140%" height="150%">
      <feDropShadow dx="0" dy="18" stdDeviation="18" flood-color="#11151b" flood-opacity="0.22"/>
    </filter>
  </defs>
  
    <rect width="640" height="420" fill="#eef1f4"/>
    <path d="M0 0h640v150c-92 20-170 12-255-16C268 92 166 101 54 145c-20 8-38 13-54 15z" fill="#b86a3c" opacity="0.94"/>
    <g opacity="0.2" stroke="#20242b" stroke-width="1.5"><path d="M0 320h640M0 360h640M90 200v180M220 180v200M350 200v180M480 180v200"/></g>
  <g filter="url(#softShadow)" transform="translate(120 175)"><ellipse cx="210" cy="120" rx="190" ry="98" fill="#20242b"/><path d="M72 122c0-70 277-70 277 0s-277 70-277 0z" fill="none" stroke="url(#steel)" stroke-width="42"/><path d="M112 122c0-42 198-42 198 0s-198 42-198 0z" fill="none" stroke="#f5d0bd" stroke-width="18"/></g>
</svg>
