<?xml version="1.0" encoding="UTF-8"?>
<svg xmlns="http://www.w3.org/2000/svg" width="440" height="280" viewBox="0 0 440 280" role="img" aria-hidden="true">
  <defs>
    <linearGradient id="steel" x1="0" x2="1" y1="0" y2="1">
      <stop offset="0" stop-color="#f8fafc"/>
      <stop offset="0.28" stop-color="#c8cdd4"/>
      <stop offset="0.52" stop-color="#ffffff"/>
      <stop offset="0.78" stop-color="#9fa7b2"/>
      <stop offset="1" stop-color="#eef1f4"/>
    </linearGradient>
    <linearGradient id="darkSteel" x1="0" x2="1">
      <stop offset="0" stop-color="#20242b"/>
      <stop offset="1" stop-color="#11151b"/>
    </linearGradient>
    <linearGradient id="redSteel" x1="0" x2="1">
      <stop offset="0" stop-color="#d9252e"/>
      <stop offset="1" stop-color="#b71f28"/>
    </linearGradient>
    <filter id="softShadow" x="-20%" y="-20%" width="140%" height="150%">
      <feDropShadow dx="0" dy="18" stdDeviation="18" flood-color="#11151b" flood-opacity="0.22"/>
    </filter>
  </defs>
  <rect width="440" height="280" fill="#f8fafc"/><path d="M0 0h440v88c-52 20-110 21-178 0-82-24-158-18-262 24z" fill="url(#redSteel)" opacity="0.94"/><circle cx="350" cy="64" r="92" fill="#20242b" opacity="0.1"/><rect x="46" y="190" width="348" height="34" rx="17" fill="url(#steel)" opacity="0.9"/><g transform="translate(110 80)" fill="none" stroke="#20242b" stroke-width="12" stroke-linecap="round" stroke-linejoin="round"><circle cx="96" cy="78" r="55"/><path d="M96 0v28M96 128v28M18 78h28M146 78h28M40 22l20 20M132 114l20 20M152 22l-20 20M60 114l-20 20"/></g><path d="M48 238h344" stroke="#d9252e" stroke-width="6" stroke-linecap="round"/>
</svg>
