<?xml version="1.0" encoding="UTF-8"?>
<svg xmlns="http://www.w3.org/2000/svg" width="520" height="320" viewBox="0 0 520 320" role="img" aria-hidden="true">
  <defs>
    <linearGradient id="steel" x1="0" x2="1" y1="0" y2="1">
      <stop offset="0" stop-color="#f8fafc"/>
      <stop offset="0.28" stop-color="#c8cdd4"/>
      <stop offset="0.52" stop-color="#ffffff"/>
      <stop offset="0.78" stop-color="#9fa7b2"/>
      <stop offset="1" stop-color="#eef1f4"/>
    </linearGradient>
    <linearGradient id="darkSteel" x1="0" x2="1">
      <stop offset="0" stop-color="#20242b"/>
      <stop offset="1" stop-color="#11151b"/>
    </linearGradient>
    <linearGradient id="redSteel" x1="0" x2="1">
      <stop offset="0" stop-color="#d9252e"/>
      <stop offset="1" stop-color="#b71f28"/>
    </linearGradient>
    <filter id="softShadow" x="-20%" y="-20%" width="140%" height="150%">
      <feDropShadow dx="0" dy="18" stdDeviation="18" flood-color="#11151b" flood-opacity="0.22"/>
    </filter>
  </defs>
  <rect width="520" height="320" fill="#f8fafc"/><path d="M0 0h520v98c-68 16-130 11-200-10C220 58 128 62 0 114z" fill="url(#redSteel)" opacity="0.92"/><path d="M0 247h520v73H0z" fill="#eef1f4"/><g stroke="#c8cdd4" opacity="0.42"><path d="M48 210h420M78 244h370M118 278h300"/></g><g filter="url(#softShadow)" transform="translate(92 86)"><path d="M0 46l280-46 92 58-282 74z" fill="url(#steel)" stroke="#8d96a2" stroke-width="4"/><g fill="#20242b" opacity="0.68"><circle cx="52" cy="52" r="6"/><circle cx="85" cy="52" r="6"/><circle cx="118" cy="52" r="6"/><circle cx="151" cy="52" r="6"/><circle cx="184" cy="52" r="6"/><circle cx="217" cy="52" r="6"/><circle cx="250" cy="52" r="6"/><circle cx="283" cy="52" r="6"/><circle cx="52" cy="76" r="6"/><circle cx="85" cy="76" r="6"/><circle cx="118" cy="76" r="6"/><circle cx="151" cy="76" r="6"/><circle cx="184" cy="76" r="6"/><circle cx="217" cy="76" r="6"/><circle cx="250" cy="76" r="6"/><circle cx="283" cy="76" r="6"/><circle cx="52" cy="100" r="6"/><circle cx="85" cy="100" r="6"/><circle cx="118" cy="100" r="6"/><circle cx="151" cy="100" r="6"/><circle cx="184" cy="100" r="6"/><circle cx="217" cy="100" r="6"/><circle cx="250" cy="100" r="6"/><circle cx="283" cy="100" r="6"/></g></g>
</svg>
