<svg xmlns="http://www.w3.org/2000/svg" viewBox="0 0 420 260" role="img" aria-labelledby="secondaryTitle secondaryDesc">
  <title id="secondaryTitle">Secondary commercial metal sourcing</title>
  <desc id="secondaryDesc">Original vector visual representing selected aluminium, brass and copper sourcing.</desc>
  <rect width="420" height="260" rx="24" fill="#F8FAFC"/>
  <path fill="#D9252E" opacity="0.14" d="M0 182c55-20 105-20 151 2 74 36 164 39 269 8v68H0v-78Z"/>
  <g transform="translate(61 53)">
    <rect x="0" y="6" width="242" height="42" rx="21" fill="#C8CDD4"/>
    <rect x="28" y="62" width="242" height="42" rx="21" fill="#C6A85A"/>
    <rect x="56" y="118" width="242" height="42" rx="21" fill="#B96A3C"/>
    <g opacity="0.5" fill="#FFFFFF">
      <rect x="22" y="17" width="145" height="6" rx="3"/>
      <rect x="52" y="73" width="145" height="6" rx="3"/>
      <rect x="81" y="129" width="145" height="6" rx="3"/>
    </g>
    <g fill="#20242B" opacity="0.18">
      <ellipse cx="242" cy="27" rx="42" ry="21"/>
      <ellipse cx="270" cy="83" rx="42" ry="21"/>
      <ellipse cx="298" cy="139" rx="42" ry="21"/>
    </g>
  </g>
</svg>
