<svg xmlns="http://www.w3.org/2000/svg" viewBox="0 0 420 260" role="img" aria-labelledby="sheetsTitle sheetsDesc">
  <title id="sheetsTitle">Stainless steel sheets and plates</title>
  <desc id="sheetsDesc">Original vector visual of stacked stainless steel sheets and plates.</desc>
  <defs>
    <linearGradient id="sheetSteel" x1="0" x2="1" y1="0" y2="1">
      <stop offset="0" stop-color="#FFFFFF"/>
      <stop offset="0.3" stop-color="#C8CDD4"/>
      <stop offset="0.65" stop-color="#EEF1F4"/>
      <stop offset="1" stop-color="#8B95A2"/>
    </linearGradient>
  </defs>
  <rect width="420" height="260" rx="24" fill="#F8FAFC"/>
  <path fill="#D9252E" opacity="0.12" d="M320 0h100v260h-68c-10-68-23-141-32-260Z"/>
  <g transform="translate(52 56)">
    <path fill="#20242B" opacity="0.2" d="M5 137h296l54 42H0l5-42Z"/>
    <path d="M25 100h279l34 36H0l25-36Z" fill="#9CA5B0"/>
    <path d="M39 68h277l34 37H16l23-37Z" fill="#C8CDD4"/>
    <path d="M52 35h275l36 38H30l22-38Z" fill="#F6F8FA"/>
    <path d="M66 0h273l37 40H44L66 0Z" fill="url(#sheetSteel)" stroke="#A7B0BD" stroke-width="3"/>
    <path fill="#D9252E" opacity="0.78" d="M254 0h85l37 40h-87L254 0Z"/>
    <g stroke="#FFFFFF" opacity="0.74" stroke-width="3">
      <path d="M84 13h214M72 27h236"/>
    </g>
  </g>
</svg>
