<?xml version="1.0" encoding="UTF-8"?>
<svg xmlns="http://www.w3.org/2000/svg" width="640" height="420" viewBox="0 0 640 420" role="img" aria-hidden="true">
  <defs>
    <linearGradient id="steel" x1="0" x2="1" y1="0" y2="1">
      <stop offset="0" stop-color="#f8fafc"/>
      <stop offset="0.28" stop-color="#c8cdd4"/>
      <stop offset="0.52" stop-color="#ffffff"/>
      <stop offset="0.78" stop-color="#9fa7b2"/>
      <stop offset="1" stop-color="#eef1f4"/>
    </linearGradient>
    <linearGradient id="darkSteel" x1="0" x2="1">
      <stop offset="0" stop-color="#20242b"/>
      <stop offset="1" stop-color="#11151b"/>
    </linearGradient>
    <linearGradient id="redSteel" x1="0" x2="1">
      <stop offset="0" stop-color="#d9252e"/>
      <stop offset="1" stop-color="#b71f28"/>
    </linearGradient>
    <filter id="softShadow" x="-20%" y="-20%" width="140%" height="150%">
      <feDropShadow dx="0" dy="18" stdDeviation="18" flood-color="#11151b" flood-opacity="0.22"/>
    </filter>
  </defs>
  
    <rect width="640" height="420" fill="#eef1f4"/>
    <path d="M0 0h640v150c-92 20-170 12-255-16C268 92 166 101 54 145c-20 8-38 13-54 15z" fill="#99a3b0" opacity="0.94"/>
    <g opacity="0.2" stroke="#20242b" stroke-width="1.5"><path d="M0 320h640M0 360h640M90 200v180M220 180v200M350 200v180M480 180v200"/></g>
  <g filter="url(#softShadow)" transform="translate(115 190)"><path d="M0 110l320-72 120 74-324 82z" fill="url(#steel)" stroke="#8d96a2" stroke-width="4"/><path d="M34 74l315-70 109 65-321 78z" fill="#dbe0e6" stroke="#9fa7b2" stroke-width="4"/><path d="M74 38l300-38 87 45-296 68z" fill="#f8fafc" stroke="#c8cdd4" stroke-width="4"/></g>
</svg>
