<svg xmlns="http://www.w3.org/2000/svg" viewBox="0 0 420 260" role="img" aria-labelledby="flangesTitle flangesDesc">
  <title id="flangesTitle">Stainless steel flanges and fittings</title>
  <desc id="flangesDesc">Original vector visual of stainless steel flanges and fittings.</desc>
  <defs>
    <linearGradient id="flangeSteel" x1="0" x2="1" y1="0" y2="1">
      <stop offset="0" stop-color="#FFFFFF"/>
      <stop offset="0.28" stop-color="#B7C0CB"/>
      <stop offset="0.55" stop-color="#F6F8FA"/>
      <stop offset="1" stop-color="#7C8794"/>
    </linearGradient>
  </defs>
  <rect width="420" height="260" rx="24" fill="#EEF1F4"/>
  <path fill="#D9252E" opacity="0.12" d="M293 0h127v260h-91c-6-63-15-126-29-188-5-23-7-47-7-72Z"/>
  <g transform="translate(56 44)">
    <circle cx="104" cy="89" r="78" fill="url(#flangeSteel)" stroke="#FFFFFF" stroke-width="5"/>
    <circle cx="104" cy="89" r="38" fill="#EEF1F4" stroke="#A8B1BD" stroke-width="4"/>
    <g fill="#D9252E">
      <circle cx="104" cy="24" r="8"/>
      <circle cx="104" cy="154" r="8"/>
      <circle cx="39" cy="89" r="8"/>
      <circle cx="169" cy="89" r="8"/>
      <circle cx="58" cy="43" r="7"/>
      <circle cx="150" cy="135" r="7"/>
    </g>
    <path fill="url(#flangeSteel)" stroke="#A8B1BD" stroke-width="4" d="M218 38h72c20 0 36 16 36 36v35h-48V77h-60V38Z"/>
    <path fill="#D9252E" d="M276 109h50v44h-50z"/>
    <path fill="#20242B" opacity="0.18" d="M20 170h300l36 28H0l20-28Z"/>
  </g>
</svg>
