<svg xmlns="http://www.w3.org/2000/svg" viewBox="0 0 420 260" role="img" aria-labelledby="coilsTitle coilsDesc">
  <title id="coilsTitle">Stainless steel coils</title>
  <desc id="coilsDesc">Original vector visual of stainless steel coils.</desc>
  <defs>
    <linearGradient id="coilSteel" x1="0" x2="1" y1="0" y2="1">
      <stop offset="0" stop-color="#8F99A5"/>
      <stop offset="0.24" stop-color="#FFFFFF"/>
      <stop offset="0.5" stop-color="#B6BEC9"/>
      <stop offset="0.77" stop-color="#F7F9FB"/>
      <stop offset="1" stop-color="#687381"/>
    </linearGradient>
  </defs>
  <rect width="420" height="260" rx="24" fill="#EEF1F4"/>
  <path fill="#D9252E" opacity="0.18" d="M0 0h132c-7 58-17 113-31 164-10 39-16 71-17 96H0V0Z"/>
  <g transform="translate(75 36)">
    <ellipse cx="132" cy="94" rx="128" ry="92" fill="url(#coilSteel)" stroke="#FFFFFF" stroke-width="5"/>
    <ellipse cx="132" cy="94" rx="82" ry="58" fill="#F8FAFC" stroke="#AAB3BF" stroke-width="4"/>
    <ellipse cx="132" cy="94" rx="38" ry="27" fill="#D9252E"/>
    <ellipse cx="132" cy="94" rx="19" ry="13" fill="#EEF1F4"/>
    <path d="M24 72c71 24 145 25 223 1M31 112c66 22 136 22 208 1" fill="none" stroke="#FFFFFF" stroke-width="6" opacity="0.52"/>
    <path fill="#20242B" opacity="0.18" d="M17 174h238l44 34H0l17-34Z"/>
  </g>
</svg>
