<?xml version="1.0" encoding="UTF-8"?>
<svg xmlns="http://www.w3.org/2000/svg" width="460" height="150" viewBox="0 0 460 150" role="img" aria-labelledby="logoTitle logoDesc">
  <title id="logoTitle">Bharat Metals</title>
  <desc id="logoDesc">Bharat Metals logo with a full red India map silhouette, silver BM letters inside a metallic circle, and Bharat Metals wordmark.</desc>
  <defs>
    <linearGradient id="bmRed" x1="28" x2="170" y1="4" y2="142" gradientUnits="userSpaceOnUse">
      <stop offset="0" stop-color="#ec3a42"/>
      <stop offset="0.46" stop-color="#d9252e"/>
      <stop offset="1" stop-color="#c4212a"/>
    </linearGradient>
    <linearGradient id="bmSilver" x1="48" x2="128" y1="38" y2="112" gradientUnits="userSpaceOnUse">
      <stop offset="0" stop-color="#ffffff"/>
      <stop offset="0.25" stop-color="#dce1e8"/>
      <stop offset="0.52" stop-color="#aab2bd"/>
      <stop offset="0.72" stop-color="#f7f9fb"/>
      <stop offset="1" stop-color="#8d96a2"/>
    </linearGradient>
    <linearGradient id="wordSilver" x1="180" x2="354" y1="110" y2="122" gradientUnits="userSpaceOnUse">
      <stop offset="0" stop-color="#eef1f4"/>
      <stop offset="0.5" stop-color="#aeb6c1"/>
      <stop offset="1" stop-color="#eef1f4"/>
    </linearGradient>
    <filter id="logoShadow" x="-18%" y="-18%" width="136%" height="136%">
      <feDropShadow dx="0" dy="8" stdDeviation="7" flood-color="#11151b" flood-opacity="0.2"/>
    </filter>
  </defs>
  <g filter="url(#logoShadow)">
    <path fill="url(#bmRed)" d="M90 5c10.2-.8 15.3 8.4 23.7 13.1 6.6 3.7 17.7-.8 23.5 6.3 5.5 6.7-2.7 15.9 2.9 22.8 4.8 5.9 13.4 7.1 17.6 13.7 4.1 6.5 1.7 14.8 8.6 19.7 5.2 3.7 13.4 3.3 19.7 6.6-7.4 9.3-21.2 11.2-30.9 18.3-11.9 8.6-14.9 24.3-26.7 33.1-8.1 6-18.3 2.4-26.6 7.3-8.3 4.9-9.5 18.1-19.2 20.3-11 2.5-16.8-11.3-20.4-20.1-4.4-10.9-12.8-16.2-24-19.6-8.7-2.6-17.5-9.1-15.8-19.7 1.3-8.2 9.5-13.2 11.8-21.1 2.9-9.9-7-17.5-4.1-27.2 3.1-10.3 16.7-10.1 23.9-16.5 9.4-8.4 8-22.8 18.8-30.3 5.6-3.9 11.4 1.6 17.2-1.7 4.9-2.8 5.5-10.5 15-11.2Z"/>
    <path fill="url(#bmRed)" d="M151 56c13.4-11.4 32.8-14.8 47.2-5.8-8.8 10.2-25.6 14.7-39.9 23.1-2.5-6.5-4.2-11.9-7.3-17.3Z"/>
    <circle cx="89" cy="75" r="46" fill="url(#bmSilver)" stroke="#ffffff" stroke-width="3.5"/>
    <circle cx="89" cy="75" r="34.5" fill="#20242b" stroke="#eef1f4" stroke-width="1.2" opacity="0.98"/>
    <text x="89" y="86" text-anchor="middle" font-family="Arial, Helvetica, sans-serif" font-size="30" font-weight="900" fill="url(#bmSilver)">BM</text>
  </g>
  <g font-family="Arial, Helvetica, sans-serif">
    <text x="182" y="68" fill="#11151b" font-size="32" font-weight="900">BHARAT</text>
    <text x="182" y="105" fill="#d9252e" font-size="32" font-weight="900">METALS</text>
    <rect x="182" y="116" width="188" height="4" rx="2" fill="url(#wordSilver)"/>
  </g>
</svg>
