<?xml version="1.0" encoding="UTF-8"?>
<svg xmlns="http://www.w3.org/2000/svg" width="460" height="150" viewBox="0 0 460 150" role="img" aria-labelledby="logoTitle logoDesc">
  <title id="logoTitle">Bharat Metals</title>
  <desc id="logoDesc">Bharat Metals logo with a red India map silhouette, silver BM letters inside a circle, and Bharat Metals wordmark.</desc>
  <defs>
    <linearGradient id="bmRed" x1="18" x2="150" y1="18" y2="132" gradientUnits="userSpaceOnUse">
      <stop offset="0" stop-color="#e2343b"/>
      <stop offset="0.55" stop-color="#d9252e"/>
      <stop offset="1" stop-color="#b71f28"/>
    </linearGradient>
    <linearGradient id="bmSilver" x1="0" x2="1" y1="0" y2="1">
      <stop offset="0" stop-color="#ffffff"/>
      <stop offset="0.28" stop-color="#c8cdd4"/>
      <stop offset="0.52" stop-color="#f7f9fb"/>
      <stop offset="0.78" stop-color="#9fa7b2"/>
      <stop offset="1" stop-color="#eef1f4"/>
    </linearGradient>
    <filter id="bmShadow" x="-20%" y="-20%" width="140%" height="140%">
      <feDropShadow dx="0" dy="8" stdDeviation="8" flood-color="#11151b" flood-opacity="0.18"/>
    </filter>
  </defs>
  <g filter="url(#bmShadow)">
    <path fill="url(#bmRed)" d="M71.5 8.6c8.7 5.8 12.9 14.9 18.7 23.2 5.5 7.8 12.4 11.8 18.5 18.2 6.8 7.1 5.5 15.5 13.9 21.3 7.2 5 18.9 5.8 23.2 14.7 3.8 7.9-3 13.4-9.5 17.1-8.2 4.6-16 4.8-21.4 13.9-5.2 8.7-7.6 19.9-17.5 24.5-8.9 4.1-18.8-1.8-26.4-5.9-9.7-5.3-20.7-5.6-31.3-8.1-11.8-2.7-19.8-9.7-18.4-22.6 1.2-10.8 7.2-19.1 5.3-30.4-1.3-7.6-8.5-15.1-5.1-23.3 3.6-8.6 16.1-9.9 22.2-16.2 7.8-8.2 7.7-20.2 16.1-27.2 3.7-3.1 7.9-2.1 11.7.8Z"/>
    <circle cx="79" cy="74" r="43" fill="url(#bmSilver)" stroke="#ffffff" stroke-width="3"/>
    <circle cx="79" cy="74" r="34" fill="#20242b" opacity="0.95"/>
    <text x="79" y="84" text-anchor="middle" font-family="Arial, Helvetica, sans-serif" font-size="30" font-weight="900" fill="url(#bmSilver)">BM</text>
  </g>
  <g font-family="Arial, Helvetica, sans-serif">
    <text x="164" y="67" fill="#11151b" font-size="32" font-weight="900">BHARAT</text>
    <text x="164" y="105" fill="#d9252e" font-size="32" font-weight="900">METALS</text>
    <rect x="164" y="116" width="190" height="5" rx="2.5" fill="url(#bmSilver)"/>
  </g>
</svg>
