<?xml version="1.0" encoding="UTF-8"?>
<svg xmlns="http://www.w3.org/2000/svg" width="520" height="320" viewBox="0 0 520 320" role="img" aria-hidden="true">
  <defs>
    <linearGradient id="steel" x1="0" x2="1" y1="0" y2="1">
      <stop offset="0" stop-color="#f8fafc"/>
      <stop offset="0.28" stop-color="#c8cdd4"/>
      <stop offset="0.52" stop-color="#ffffff"/>
      <stop offset="0.78" stop-color="#9fa7b2"/>
      <stop offset="1" stop-color="#eef1f4"/>
    </linearGradient>
    <linearGradient id="darkSteel" x1="0" x2="1">
      <stop offset="0" stop-color="#20242b"/>
      <stop offset="1" stop-color="#11151b"/>
    </linearGradient>
    <linearGradient id="redSteel" x1="0" x2="1">
      <stop offset="0" stop-color="#d9252e"/>
      <stop offset="1" stop-color="#b71f28"/>
    </linearGradient>
    <filter id="softShadow" x="-20%" y="-20%" width="140%" height="150%">
      <feDropShadow dx="0" dy="18" stdDeviation="18" flood-color="#11151b" flood-opacity="0.22"/>
    </filter>
  </defs>
  <rect width="520" height="320" fill="#f8fafc"/><path d="M0 0h520v98c-68 16-130 11-200-10C220 58 128 62 0 114z" fill="url(#redSteel)" opacity="0.92"/><path d="M0 247h520v73H0z" fill="#eef1f4"/><g stroke="#c8cdd4" opacity="0.42"><path d="M48 210h420M78 244h370M118 278h300"/></g><g filter="url(#softShadow)"><circle cx="145" cy="165" r="30" fill="url(#steel)" stroke="#7d8793" stroke-width="3"/>
      <circle cx="145" cy="165" r="21" fill="#20242b" opacity="0.92"/>
      <circle cx="136" cy="154.5" r="3.5999999999999996" fill="#fff" opacity="0.72"/><circle cx="203" cy="165" r="30" fill="url(#steel)" stroke="#7d8793" stroke-width="3"/>
      <circle cx="203" cy="165" r="21" fill="#20242b" opacity="0.92"/>
      <circle cx="194" cy="154.5" r="3.5999999999999996" fill="#fff" opacity="0.72"/><circle cx="261" cy="165" r="30" fill="url(#steel)" stroke="#7d8793" stroke-width="3"/>
      <circle cx="261" cy="165" r="21" fill="#20242b" opacity="0.92"/>
      <circle cx="252" cy="154.5" r="3.5999999999999996" fill="#fff" opacity="0.72"/><circle cx="319" cy="165" r="30" fill="url(#steel)" stroke="#7d8793" stroke-width="3"/>
      <circle cx="319" cy="165" r="21" fill="#20242b" opacity="0.92"/>
      <circle cx="310" cy="154.5" r="3.5999999999999996" fill="#fff" opacity="0.72"/><circle cx="377" cy="165" r="30" fill="url(#steel)" stroke="#7d8793" stroke-width="3"/>
      <circle cx="377" cy="165" r="21" fill="#20242b" opacity="0.92"/>
      <circle cx="368" cy="154.5" r="3.5999999999999996" fill="#fff" opacity="0.72"/><circle cx="174" cy="223" r="30" fill="url(#steel)" stroke="#7d8793" stroke-width="3"/>
      <circle cx="174" cy="223" r="21" fill="#20242b" opacity="0.92"/>
      <circle cx="165" cy="212.5" r="3.5999999999999996" fill="#fff" opacity="0.72"/><circle cx="232" cy="223" r="30" fill="url(#steel)" stroke="#7d8793" stroke-width="3"/>
      <circle cx="232" cy="223" r="21" fill="#20242b" opacity="0.92"/>
      <circle cx="223" cy="212.5" r="3.5999999999999996" fill="#fff" opacity="0.72"/><circle cx="290" cy="223" r="30" fill="url(#steel)" stroke="#7d8793" stroke-width="3"/>
      <circle cx="290" cy="223" r="21" fill="#20242b" opacity="0.92"/>
      <circle cx="281" cy="212.5" r="3.5999999999999996" fill="#fff" opacity="0.72"/><circle cx="348" cy="223" r="30" fill="url(#steel)" stroke="#7d8793" stroke-width="3"/>
      <circle cx="348" cy="223" r="21" fill="#20242b" opacity="0.92"/>
      <circle cx="339" cy="212.5" r="3.5999999999999996" fill="#fff" opacity="0.72"/><circle cx="406" cy="223" r="30" fill="url(#steel)" stroke="#7d8793" stroke-width="3"/>
      <circle cx="406" cy="223" r="21" fill="#20242b" opacity="0.92"/>
      <circle cx="397" cy="212.5" r="3.5999999999999996" fill="#fff" opacity="0.72"/></g>
</svg>
