<?xml version="1.0" encoding="UTF-8"?>
<svg xmlns="http://www.w3.org/2000/svg" width="520" height="320" viewBox="0 0 520 320" role="img" aria-hidden="true">
  <defs>
    <linearGradient id="steel" x1="0" x2="1" y1="0" y2="1">
      <stop offset="0" stop-color="#f8fafc"/>
      <stop offset="0.28" stop-color="#c8cdd4"/>
      <stop offset="0.52" stop-color="#ffffff"/>
      <stop offset="0.78" stop-color="#9fa7b2"/>
      <stop offset="1" stop-color="#eef1f4"/>
    </linearGradient>
    <linearGradient id="darkSteel" x1="0" x2="1">
      <stop offset="0" stop-color="#20242b"/>
      <stop offset="1" stop-color="#11151b"/>
    </linearGradient>
    <linearGradient id="redSteel" x1="0" x2="1">
      <stop offset="0" stop-color="#d9252e"/>
      <stop offset="1" stop-color="#b71f28"/>
    </linearGradient>
    <filter id="softShadow" x="-20%" y="-20%" width="140%" height="150%">
      <feDropShadow dx="0" dy="18" stdDeviation="18" flood-color="#11151b" flood-opacity="0.22"/>
    </filter>
  </defs>
  <rect width="520" height="320" fill="#f8fafc"/><path d="M0 0h520v98c-68 16-130 11-200-10C220 58 128 62 0 114z" fill="url(#redSteel)" opacity="0.92"/><path d="M0 247h520v73H0z" fill="#eef1f4"/><g stroke="#c8cdd4" opacity="0.42"><path d="M48 210h420M78 244h370M118 278h300"/></g><g filter="url(#softShadow)" transform="translate(88 82)"><rect x="0" y="0" width="340" height="190" rx="10" fill="#f8fafc" stroke="#8d96a2" stroke-width="4"/><g stroke="#9fa7b2" stroke-width="3"><path d="M0 0l-58 190M0 0l58 190"/><path d="M38 0l-58 190M38 0l58 190"/><path d="M76 0l-58 190M76 0l58 190"/><path d="M114 0l-58 190M114 0l58 190"/><path d="M152 0l-58 190M152 0l58 190"/><path d="M190 0l-58 190M190 0l58 190"/><path d="M228 0l-58 190M228 0l58 190"/><path d="M266 0l-58 190M266 0l58 190"/><path d="M304 0l-58 190M304 0l58 190"/><path d="M342 0l-58 190M342 0l58 190"/></g></g>
</svg>
